<svg width="57" height="54" viewBox="0 0 57 54" fill="none" xmlns="http://www.w3.org/2000/svg">
<path fill-rule="evenodd" clip-rule="evenodd" d="M46.1688 37.4625C45.8838 35.8101 46.4368 34.1253 47.6537 32.9562L55.4372 25.4691C58.4981 22.5234 56.808 17.3907 52.5786 16.7832L41.8225 15.2415C40.141 15.0012 38.6875 13.959 37.9379 12.4551L33.1271 2.83769C32.1808 0.944988 30.3397 0 28.4986 0C26.6603 0 24.8192 0.944988 23.873 2.83769L19.0621 12.4551C18.3125 13.959 16.859 15.0012 15.1775 15.2415L4.42142 16.7832C0.19196 17.3907 -1.49812 22.5234 1.56282 25.4691L9.34629 32.9562C10.5633 34.1253 11.1162 35.8101 10.8312 37.4625L8.99289 48.0357C8.42003 51.327 11.0706 54 14.0774 54C14.8697 54 15.6876 53.8137 16.4799 53.4033L26.0988 48.411C26.8513 48.0222 27.6749 47.8278 28.4986 47.8278C29.3251 47.8278 30.1488 48.0222 30.9012 48.411L40.5201 53.4033C41.3124 53.8137 42.1303 54 42.9226 54C45.9294 54 48.58 51.327 48.0071 48.0357L46.1688 37.4625Z" fill="#2C2C2C"/>
</svg>